<svg version="1.1" id="Layer_1" xmlns="http://www.w3.org/2000/svg" xmlns:xlink="http://www.w3.org/1999/xlink" x="0px" y="0px"
	 width="100%" viewBox="0 0 1024 1024" enable-background="new 0 0 1024 1024" xml:space="preserve">
<path fill="#000000" opacity="1.000000" stroke="none" 
	d="
M545.000000,825.311523 
	C442.845795,825.318604 341.191620,825.341675 239.537415,825.323608 
	C205.039047,825.317444 178.705704,799.003662 178.703842,764.583374 
	C178.695511,611.268860 178.695129,457.954315 178.716293,304.639771 
	C178.720261,275.859436 196.866837,252.496689 224.672394,245.541183 
	C228.679413,244.538834 232.872955,243.833038 236.988388,243.790817 
	C254.984253,243.606216 272.984558,243.840027 290.979980,243.636993 
	C295.721558,243.583481 296.832947,245.181549 296.615662,249.800003 
	C296.076080,261.267426 295.442627,272.893951 298.753204,284.059357 
	C305.975006,308.416138 322.294830,323.748505 347.386505,327.093353 
	C371.113586,330.256317 391.453644,322.174103 405.798462,302.075256 
	C411.562988,293.998413 414.003052,284.685760 413.974976,274.749908 
	C413.950989,266.251038 414.054352,257.749969 413.887512,249.254105 
	C413.809540,245.284103 415.123077,243.640335 419.360107,243.648010 
	C477.686096,243.753860 536.012390,243.753586 594.338379,243.665817 
	C598.454956,243.659622 599.914490,245.171494 599.979431,249.191147 
	C600.116272,257.676331 599.216858,266.157349 600.076721,274.645020 
	C603.991394,313.287506 642.772522,337.483032 679.297913,324.159851 
	C698.699951,317.082672 712.094604,304.462769 716.167236,283.745972 
	C718.129272,273.765472 716.805054,263.467865 716.940674,253.314392 
	C717.068909,243.710129 716.993164,243.710724 726.360291,243.712158 
	C742.358337,243.714600 758.356384,243.699875 774.354431,243.719025 
	C808.550903,243.759964 835.274109,270.429535 835.282410,304.595764 
	C835.304321,394.584717 835.298706,484.573669 835.256165,574.562622 
	C835.254944,577.138000 835.945862,579.862488 834.346741,582.521057 
	C830.107239,582.186401 826.464661,580.013794 822.576233,578.737427 
	C808.876343,574.240540 794.828247,571.841125 780.449402,571.347351 
	C773.885010,571.122009 773.828918,571.231567 773.825928,564.528687 
	C773.803284,514.034912 773.828247,463.541077 773.770447,413.047333 
	C773.753235,398.028534 765.440125,386.630249 751.595459,382.077423 
	C748.346619,381.009033 745.032959,381.004517 741.715576,381.003754 
	C585.068176,380.967224 428.420746,380.939575 271.773346,380.952332 
	C253.332413,380.953827 240.180283,393.855225 240.165543,412.351440 
	C240.079102,520.837952 240.087799,629.324585 240.165161,737.811218 
	C240.178375,756.337097 253.988235,769.662170 272.730438,769.665344 
	C392.882355,769.685791 513.034363,769.720459 633.186035,769.567383 
	C638.620300,769.560486 641.432190,770.984253 643.600891,776.199524 
	C650.523621,792.847351 660.910706,807.287231 673.561401,820.109680 
	C674.606812,821.169312 675.591980,822.291748 676.549133,823.431885 
	C676.705933,823.618652 676.571167,824.050171 676.571167,825.311340 
	C632.903259,825.311340 589.201660,825.311340 545.000000,825.311523 
z"/>
<path fill="#000000" opacity="1.000000" stroke="none" 
	d="
M753.903503,839.352783 
	C701.016418,827.271240 667.089966,795.287292 655.421448,742.881531 
	C639.408691,670.964478 689.141052,604.940674 756.890625,594.592224 
	C822.012146,584.645020 881.967407,624.499023 897.622314,688.032410 
	C914.909424,758.189697 866.837280,829.899170 795.589294,840.102295 
	C781.831116,842.072632 768.040710,842.136597 753.903503,839.352783 
M798.412231,701.884155 
	C789.341064,710.945496 780.135681,719.878540 771.273865,729.140198 
	C768.303894,732.244080 766.515503,732.080933 763.665344,729.118347 
	C755.006714,720.118225 746.132568,711.323425 737.259460,702.532288 
	C732.787292,698.101440 727.415649,695.585144 721.003174,696.674255 
	C713.699097,697.914795 708.516846,702.006531 706.173584,709.192993 
	C703.885986,716.208801 705.645996,722.537903 710.635315,727.634521 
	C725.083374,742.393250 739.650330,757.039734 754.389648,771.507202 
	C761.915710,778.894409 772.838928,778.687805 780.344910,771.218323 
	C803.953064,747.724915 827.457764,724.127563 850.984741,700.552612 
	C855.488403,696.039795 856.788269,690.540100 855.393127,684.437622 
	C852.211548,670.521118 835.785522,665.472473 825.138672,675.393738 
	C816.132141,683.786499 807.620300,692.710083 798.412231,701.884155 
z"/>
<path fill="#000000" opacity="1.000000" stroke="none" 
	d="
M688.689941,176.394867 
	C694.792175,184.385910 697.305664,193.134384 697.275146,202.773407 
	C697.206116,224.582489 697.293945,246.392044 697.245239,268.201233 
	C697.195618,290.426300 679.773743,308.157043 658.295776,307.939453 
	C636.771179,307.721313 619.839417,290.411865 619.731201,268.304596 
	C619.622803,246.162781 619.657471,224.020004 619.700623,201.877792 
	C619.734985,184.262634 629.140747,170.460297 645.132263,164.350739 
	C660.360962,158.532639 676.834839,163.003098 688.689941,176.394867 
z"/>
<path fill="#000000" opacity="1.000000" stroke="none" 
	d="
M389.314636,181.877686 
	C392.808197,188.523590 394.272919,195.253143 394.258484,202.378632 
	C394.213623,224.516479 394.405060,246.656021 394.192108,268.791901 
	C394.036896,284.924255 386.425476,297.009491 372.022675,303.939880 
	C357.547272,310.905273 343.446564,308.926727 330.881866,298.835693 
	C321.820190,291.558075 316.999237,281.696259 316.835327,270.170319 
	C316.499237,246.539047 316.561676,222.898254 316.779510,199.264328 
	C316.933746,182.532303 329.119934,167.574265 345.537079,163.198303 
	C362.503632,158.675888 379.329071,165.755600 389.314636,181.877686 
z"/>
<path fill="#000000" opacity="1.000000" stroke="none" 
	d="
M410.714050,471.981995 
	C410.713898,458.660583 410.674042,445.835541 410.729919,433.010925 
	C410.764496,425.070862 414.259949,421.173309 422.211731,421.057617 
	C437.864655,420.829895 453.524628,420.844971 469.178497,421.028900 
	C477.096527,421.121948 480.862579,424.971039 480.941223,432.830139 
	C481.096222,448.318359 481.111053,463.809937 480.974823,479.298309 
	C480.903870,487.364258 476.889954,491.178864 468.825500,491.212189 
	C453.835663,491.274170 438.845337,491.245667 423.855286,491.218323 
	C413.990387,491.200317 410.731079,487.885773 410.714874,477.975037 
	C410.711853,476.142883 410.714630,474.310730 410.714050,471.981995 
z"/>
<path fill="#000000" opacity="1.000000" stroke="none" 
	d="
M587.850647,539.906982 
	C600.162292,540.000549 603.204529,542.995300 603.218384,554.659241 
	C603.235291,568.970886 603.247253,583.282654 603.201355,597.594116 
	C603.172791,606.495972 599.624634,610.138062 590.852600,610.173462 
	C575.709106,610.234619 560.565002,610.231384 545.421509,610.172913 
	C537.017273,610.140442 533.041748,606.390381 532.966248,598.060486 
	C532.827576,582.751648 532.840698,567.439819 532.975342,552.130798 
	C533.048096,543.862000 537.032959,540.027588 545.436340,539.964233 
	C559.414490,539.858826 573.393860,539.919128 587.850647,539.906982 
z"/>
<path fill="#000000" opacity="1.000000" stroke="none" 
	d="
M447.000000,729.221985 
	C438.675598,729.219299 430.850861,729.260437 423.026886,729.200989 
	C414.507904,729.136353 410.746155,725.448730 410.725647,717.093994 
	C410.688080,701.778198 410.686890,686.462158 410.745087,671.146484 
	C410.776184,662.965149 414.408722,659.085754 422.565369,659.002319 
	C438.046082,658.843994 453.530243,658.859802 469.011505,658.984497 
	C476.835999,659.047485 480.758972,662.761841 480.884247,670.682312 
	C481.134308,686.493652 481.131714,702.312744 480.952057,718.125427 
	C480.871704,725.199158 476.648499,729.041382 469.474518,729.163940 
	C462.151489,729.289062 454.824982,729.210754 447.000000,729.221985 
z"/>
<path fill="#000000" opacity="1.000000" stroke="none" 
	d="
M554.016968,658.969604 
	C566.328247,658.969360 578.142761,658.920288 589.956787,658.983826 
	C599.631592,659.035828 603.216492,662.668579 603.226685,672.287720 
	C603.242432,687.097168 603.251038,701.906677 603.205566,716.716003 
	C603.178772,725.438477 599.466309,729.148987 590.723022,729.174438 
	C575.580872,729.218445 560.438354,729.227905 545.296265,729.172302 
	C536.946655,729.141602 533.030823,725.368774 532.961365,716.955383 
	C532.836426,701.814209 532.866577,686.670593 532.977966,671.529053 
	C533.042419,662.765503 536.763489,659.166260 545.533020,658.979736 
	C548.194214,658.923157 550.857605,658.969971 554.016968,658.969604 
z"/>
<path fill="#000000" opacity="1.000000" stroke="none" 
	d="
M603.235291,471.973083 
	C603.210632,489.845856 601.832397,491.214630 584.485840,491.200531 
	C571.506592,491.189972 558.527283,491.240936 545.548218,491.193115 
	C536.944580,491.161377 533.025330,487.356232 532.958374,478.686432 
	C532.841370,463.544861 532.838745,448.401337 532.939270,433.259644 
	C532.993896,425.032166 536.525757,421.201721 544.781982,421.072693 
	C560.419495,420.828308 576.065857,420.835480 591.703857,421.061584 
	C599.543823,421.174957 603.175537,425.210846 603.216858,433.040161 
	C603.284485,445.852631 603.234985,458.665741 603.235291,471.973083 
z"/>
<path fill="#000000" opacity="1.000000" stroke="none" 
	d="
M481.156158,556.086060 
	C481.163055,570.056824 481.193451,583.541260 481.169128,597.025513 
	C481.151886,606.591431 477.466553,610.209290 467.788269,610.224060 
	C453.804535,610.245361 439.820587,610.283386 425.837036,610.230347 
	C417.195038,610.197510 410.831940,603.990173 410.749695,595.276306 
	C410.614594,580.960876 410.679260,566.643127 410.725647,552.326599 
	C410.749329,545.017090 414.393219,540.433655 421.788849,540.244202 
	C438.422668,539.817993 455.075775,539.922668 471.716888,540.135498 
	C476.634247,540.198364 480.254822,544.148499 480.945587,549.118713 
	C481.241486,551.247681 481.099365,553.437500 481.156158,556.086060 
z"/>
<path fill="#000000" opacity="1.000000" stroke="none" 
	d="
M655.590759,434.151794 
	C655.770264,424.428253 658.961975,421.084167 668.287048,421.000488 
	C683.263733,420.866058 698.243164,420.862488 713.220093,420.975098 
	C721.869507,421.040100 725.363770,424.671265 725.370483,433.157532 
	C725.382690,448.634644 725.384460,464.111908 725.326538,479.588837 
	C725.296692,487.551849 721.719849,491.147888 713.687195,491.182495 
	C698.210266,491.249237 682.732666,491.255310 667.255920,491.174927 
	C659.212097,491.133179 655.665955,487.541840 655.635437,479.562408 
	C655.578064,464.584686 655.601685,449.606659 655.590759,434.151794 
z"/>
<path fill="#000000" opacity="1.000000" stroke="none" 
	d="
M288.663269,676.039673 
	C288.624603,661.001282 290.692230,658.957153 305.399841,658.959167 
	C318.543396,658.960999 331.687073,658.913513 344.830475,658.957092 
	C355.155457,658.991333 358.348816,662.199280 358.346863,672.302612 
	C358.343994,687.276245 358.378693,702.249939 358.338074,717.223450 
	C358.315704,725.471985 354.751984,729.127197 346.504089,729.173035 
	C331.031738,729.259033 315.558350,729.264465 300.085968,729.188110 
	C292.094635,729.148621 288.658051,725.546326 288.645599,717.460266 
	C288.624603,703.817627 288.655243,690.174805 288.663269,676.039673 
z"/>
<path fill="#000000" opacity="1.000000" stroke="none" 
	d="
M357.526611,546.076233 
	C357.910187,548.265747 358.317078,550.066833 358.323151,551.869202 
	C358.375305,567.345703 358.382782,582.822449 358.345001,598.299072 
	C358.325012,606.504028 354.712616,610.164978 346.446716,610.198486 
	C331.136780,610.260681 315.825928,610.256226 300.516205,610.161011 
	C292.186554,610.109192 288.677032,606.494507 288.665131,598.275330 
	C288.642700,582.798706 288.623077,567.321960 288.651154,551.845398 
	C288.665222,544.079163 291.948029,540.172974 299.626801,540.042236 
	C315.597321,539.770386 331.576691,539.872192 347.550293,540.032532 
	C351.664673,540.073792 355.443970,541.464050 357.526611,546.076233 
z"/>
<path fill="#000000" opacity="1.000000" stroke="none" 
	d="
M725.343262,574.799316 
	C725.905457,579.107056 724.436096,581.247131 720.645264,582.762634 
	C706.472656,588.428284 693.601746,596.364502 682.168579,606.496338 
	C675.596375,612.320496 668.204285,610.756958 661.025452,608.876770 
	C657.483643,607.949158 655.701355,604.409241 655.689148,600.588867 
	C655.635132,583.611694 655.614258,566.633850 655.707336,549.656982 
	C655.733337,544.907837 658.452515,541.904602 662.947510,540.682434 
	C664.846069,540.166199 666.885803,539.979797 668.862732,539.971802 
	C683.177063,539.913757 697.491882,539.894836 711.806213,539.954285 
	C721.985840,539.996582 725.323975,543.354248 725.349487,553.355591 
	C725.367310,560.346375 725.347229,567.337219 725.343262,574.799316 
z"/>
</svg>